# xmcd CD database file
#
# Track frame offsets:
#	150
#	29345
#	45543
#	69075
#	85954
#	105579
#	123633
#	146200
#	166241
#	180527
#	198919
#	213725
#	230276
#	246260
#	262145
#
# Disc length: 3696 seconds
#
# Revision: 1
# Processed by: cddbd v1.5.2PL0 Copyright (c) Steve Scherf et al.
# Submitted via: CDex 1.51
#
DISCID=d70e6e0f
DTITLE=Salsapelpa - Fiesta Caliente
DYEAR=1900
DGENRE=Salsa
TTITLE0=Que te vas remix salsa (George Lamond, Gabriel)
TTITLE1=Brujeria remix 2004 (Borrego)
TTITLE2=Recordandos descargas (Edwin Bonilla)
TTITLE3=Obsesion (Santo, Santos)
TTITLE4=Mayonesa remix (Britos, Caceres, Jara)
TTITLE5=Luna (Rafaga)
TTITLE6=La colegiala (Léon)
TTITLE7=El rey (Jimenez)
TTITLE8=1, 2, 3 (Garcia, Madero, Puerta)
TTITLE9=Suavemente remix (Elvis Crespo)
TTITLE10=Todavia (Joycee, Mendoza)
TTITLE11=Me pones sexy (Fat Joe, Estefan)
TTITLE12=El balacalao (Ruiz Antoine, Mulet Stéphane)
TTITLE13=Zorro (Warner Bros, El Tio Ruiz, A. Mulet)
TTITLE14=Bash boum boum remix - Malhao (B. Mira, C. Tiago)
EXTD=
EXTT0=
EXTT1=
EXTT2=
EXTT3=
EXTT4=
EXTT5=
EXTT6=
EXTT7=
EXTT8=
EXTT9=
EXTT10=
EXTT11=
EXTT12=
EXTT13=
EXTT14=
PLAYORDER=
